<svg width="127" height="116" viewBox="0 0 127 116" fill="none" xmlns="http://www.w3.org/2000/svg">
<path d="M63.212 112.276C40.2777 112.276 20.6522 98.1274 12.4369 78.0456H9.47034C17.7997 99.6107 38.7944 115.014 63.212 115.014C87.7438 115.014 108.624 99.6107 116.954 78.0456H113.987C105.772 98.1274 86.1464 112.276 63.212 112.276Z" fill="#555555" fill-opacity="0.5"/>
<path d="M63.2121 2.73843C86.1465 2.73843 105.772 16.887 113.987 36.9688H116.954C108.624 15.4037 87.6298 0 63.2121 0C38.6803 0 17.7998 15.4037 9.4704 36.9688H12.437C20.6523 16.887 40.2777 2.73843 63.2121 2.73843Z" fill="#555555" fill-opacity="0.5"/>
<path d="M16.773 78.1591H15.2897C23.2768 96.7577 41.7612 109.765 63.2122 109.765C84.6633 109.765 103.148 96.7577 111.135 78.1591H109.652C101.779 95.959 83.8646 108.396 63.2122 108.396C42.5599 108.396 24.646 95.959 16.773 78.1591Z" fill="#555555" fill-opacity="0.5"/>
<path d="M109.652 36.9689H111.135C103.148 18.3704 84.6633 5.36283 63.2122 5.36283C41.7612 5.36283 23.2768 18.3704 15.2897 36.9689H16.773C24.646 19.1691 42.5599 6.73206 63.2122 6.73206C83.9787 6.73206 101.779 19.1691 109.652 36.9689Z" fill="#555555" fill-opacity="0.5"/>
<path d="M95.2738 78.1595H93.5623C86.9445 87.8581 75.7626 94.3619 63.0973 94.3619C50.4321 94.3619 39.2501 87.9722 32.6323 78.1595H30.9207C37.7668 88.6569 49.5192 95.7311 62.9832 95.7311C76.6753 95.7311 88.5419 88.6569 95.2738 78.1595Z" fill="#555555" fill-opacity="0.5"/>
<path d="M31.1494 36.9687H32.8609C39.4788 27.2701 50.6607 20.7663 63.3259 20.7663C75.9912 20.7663 87.1731 27.156 93.791 36.9687H95.5025C88.6564 26.4714 76.904 19.3971 63.4401 19.3971C49.7479 19.3971 37.8814 26.3573 31.1494 36.9687Z" fill="#555555" fill-opacity="0.5"/>
<path d="M121.632 38.7941H4.79227C2.16794 38.7941 0 40.962 0 43.5863V71.5412C0 74.1655 2.16794 76.3335 4.79227 76.3335H121.632C124.256 76.3335 126.424 74.1655 126.424 71.5412V43.5863C126.424 40.962 124.256 38.7941 121.632 38.7941ZM122.773 71.5412C122.773 72.1117 122.317 72.6822 121.632 72.6822H4.79227C4.22176 72.6822 3.65126 72.2258 3.65126 71.5412V43.5863C3.65126 43.0158 4.10766 42.4453 4.79227 42.4453H121.632C122.203 42.4453 122.773 42.9017 122.773 43.5863V71.5412Z" fill="#555555" fill-opacity="0.5"/>
<path d="M4.6783 71.5414L121.632 71.6555C121.632 71.6555 121.746 71.6555 121.746 71.5414V43.5865L4.79237 43.4724L4.6783 71.5414ZM112.96 48.3788H115.014V53.8557C115.014 54.0839 115.014 54.3121 114.9 54.5403C114.786 54.6544 114.672 54.7685 114.558 54.7685C114.444 54.7685 114.33 54.6544 114.216 54.5403C114.101 54.4262 114.101 54.198 114.101 53.9698L113.987 53.171C113.873 52.3723 113.759 51.5736 113.531 51.0031C113.417 50.6608 113.189 50.3185 112.96 50.0903V48.3788ZM108.625 65.0376L108.739 64.9235C108.853 64.8094 108.853 64.4671 108.853 64.1248V48.3788H112.276V64.1248C112.276 64.4671 112.276 64.6953 112.39 64.9235C112.39 65.0376 112.504 65.0376 112.504 65.0376C112.504 65.0376 112.618 65.1517 112.846 65.1517C113.075 65.2658 113.189 65.494 113.189 65.8363C113.189 66.0645 113.075 66.2927 112.96 66.4068C112.846 66.5209 112.732 66.5209 112.504 66.5209H108.625C108.396 66.5209 108.282 66.5209 108.168 66.2927C108.054 66.1786 107.94 65.9504 107.94 65.7222C107.94 65.3799 108.054 65.0376 108.282 65.0376C108.51 65.1517 108.625 65.0376 108.625 65.0376ZM106.228 48.3788H108.282V49.9762C108.054 50.2044 107.826 50.5467 107.712 50.889C107.484 51.4595 107.369 52.2583 107.255 53.057L107.141 53.8557C107.141 54.0839 107.027 54.3121 107.027 54.4262C106.913 54.5403 106.799 54.6544 106.685 54.6544C106.571 54.6544 106.457 54.5403 106.343 54.4262C106.228 54.3121 106.228 54.0839 106.228 53.7416V48.3788ZM103.832 61.9569V66.635H100.637V65.1517C100.98 65.0376 101.208 64.9235 101.436 64.8094C101.664 64.6953 101.893 64.353 102.121 64.1248C102.349 63.7825 102.463 63.4402 102.691 63.0979C102.805 62.7556 102.92 62.2992 103.034 61.7286C103.034 61.3863 103.148 61.2722 103.262 61.1581C103.376 61.044 103.376 61.0441 103.49 61.0441C103.604 61.0441 103.718 61.1581 103.832 61.2722C103.832 61.3863 103.832 61.6146 103.832 61.9569ZM100.637 48.3788H103.718V53.171C103.718 53.3993 103.718 53.6275 103.604 53.7416C103.49 53.8557 103.49 53.9698 103.262 53.9698C103.148 53.9698 103.034 53.9698 103.034 53.8557C103.034 53.7416 102.92 53.6275 102.92 53.3993C102.691 52.3724 102.463 51.5736 102.121 51.0031C101.778 50.4326 101.208 50.0903 100.637 49.9762V48.3788ZM100.637 56.5941C100.98 56.3659 101.208 56.0236 101.322 55.7954C101.436 55.4531 101.55 55.1108 101.664 54.6544C101.664 54.3121 101.779 54.0839 101.779 53.9698C101.893 53.8557 101.893 53.7416 102.007 53.7416C102.121 53.7416 102.235 53.8557 102.349 54.0839C102.349 54.198 102.349 54.4262 102.349 54.8826V60.0171C102.349 60.4735 102.349 60.7018 102.235 60.93C102.235 61.0441 102.121 61.1581 101.893 61.1581C101.779 61.1581 101.664 61.0441 101.664 60.93C101.55 60.8159 101.55 60.5876 101.55 60.2453C101.436 59.6748 101.322 59.1043 101.208 58.8761C101.094 58.5338 100.866 58.3056 100.637 58.1915V56.5941ZM96.4157 50.0903C96.4157 49.9762 96.3017 49.9762 96.3017 49.9762C96.3017 49.9762 96.1876 49.8621 95.9594 49.748C95.7312 49.6339 95.6171 49.4057 95.6171 49.0634C95.6171 48.8352 95.617 48.7211 95.7311 48.4929C95.8452 48.3788 95.9594 48.2647 96.1876 48.2647H99.8388V66.635H96.3017C96.0735 66.635 95.9593 66.635 95.8452 66.4068C95.7311 66.2927 95.7311 66.0645 95.7311 65.8363C95.7311 65.494 95.8452 65.2658 96.0734 65.1517C96.1875 65.0376 96.3016 65.0376 96.4157 64.9235C96.4157 64.9235 96.4158 64.8094 96.5299 64.8094C96.644 64.6953 96.6439 64.4671 96.6439 64.1248V50.6608C96.5298 50.5467 96.5298 50.3185 96.4157 50.0903ZM88.2005 48.3788C88.771 48.3788 89.2274 48.3788 89.6838 48.4929C90.2543 48.607 90.8248 48.9493 91.2812 49.5198C91.9658 50.3185 92.3081 51.5737 92.3081 53.057C92.3081 54.3121 92.0799 55.339 91.6235 56.1377C91.3953 56.48 91.1671 56.7082 90.9389 56.9364C90.7107 57.1646 90.2543 57.3928 89.7979 57.621C90.2543 57.7351 90.5966 57.8492 90.9389 58.0774C91.1671 58.1915 91.3953 58.4197 91.6235 58.6479C91.8517 58.8761 91.9658 59.2184 92.0799 59.6748C92.194 60.0171 92.3081 60.4736 92.3081 60.93V63.6684C92.3081 64.0107 92.3081 64.1248 92.4222 64.1248C92.4222 64.1248 92.5363 64.1248 92.5363 64.0107C92.5363 64.0107 92.6504 63.8966 92.6504 63.7825C92.7645 63.4402 92.8786 63.3261 92.9927 63.3261C93.1068 63.3261 93.2209 63.4402 93.2209 63.5543C93.335 63.6684 93.3351 63.8966 93.3351 64.0107C93.3351 64.2389 93.2209 64.5812 93.1068 65.0376C92.9927 65.3799 92.7645 65.8363 92.5363 66.0645C92.3081 66.4068 92.0799 66.5209 91.8517 66.7491C91.6235 66.8632 91.2812 66.9773 90.9389 66.9773C90.2543 66.9773 89.6838 66.635 89.3415 65.9504C88.9992 65.2658 88.771 64.353 88.771 63.0979V60.8159C88.771 60.3594 88.771 60.0172 88.771 59.9031C88.771 59.5608 88.6569 59.2184 88.5428 58.9902C88.4287 58.6479 88.2004 58.5338 87.8581 58.4197V56.9364C88.0863 56.8223 88.3145 56.7082 88.4286 56.5941C88.5427 56.48 88.6569 56.2518 88.6569 56.0236C88.6569 55.7954 88.6569 55.5672 88.6569 55.1108V51.5736C88.6569 51.0031 88.5427 50.5467 88.4286 50.3185C88.3145 50.0903 88.0864 49.8621 87.7441 49.6339V48.3788H88.2005ZM83.8646 50.0903C83.8646 49.9762 83.7505 49.9762 83.7505 49.9762C83.7505 49.9762 83.6364 49.8621 83.4082 49.748C83.18 49.6339 83.0659 49.4057 83.0659 49.0634C83.0659 48.8352 83.0659 48.7211 83.18 48.4929C83.2941 48.3788 83.4082 48.2647 83.6364 48.2647H87.2876V64.0107C87.2876 64.353 87.2877 64.5812 87.4018 64.8094C87.4018 64.9235 87.5158 64.9235 87.5158 64.9235C87.5158 64.9235 87.6299 65.0376 87.8581 65.0376C88.0863 65.1517 88.2005 65.3799 88.2005 65.7222C88.2005 65.9504 88.0864 66.1786 87.9723 66.2927C87.8582 66.4068 87.744 66.4068 87.5158 66.4068H83.7505C83.5223 66.4068 83.4082 66.4068 83.2941 66.1786C83.18 66.0645 83.18 65.8363 83.18 65.6081C83.18 65.2658 83.2941 65.0376 83.5223 64.9235C83.6364 64.8094 83.7505 64.8094 83.8646 64.6953L83.9787 64.5812C84.0928 64.4671 84.0928 64.2389 84.0928 63.8966V50.4326C83.9787 50.5467 83.9787 50.3185 83.8646 50.0903ZM80.2134 63.6684C79.9852 64.2389 79.757 64.8094 79.5287 65.2658C79.1864 65.8363 78.8442 66.2927 78.5019 66.635C78.1596 66.9773 77.7031 67.0914 77.2467 67.0914V65.494C77.589 65.494 78.0455 65.1517 78.5019 64.6953C78.7301 64.4671 78.9583 64.1248 79.0724 63.6684C79.3006 63.212 79.4146 62.7556 79.5287 62.1851C79.5287 61.8428 79.6429 61.7287 79.757 61.6146C79.8711 61.5005 79.8711 61.3864 79.9852 61.3864C80.0993 61.3864 80.2134 61.5005 80.3275 61.6146C80.4416 61.7287 80.4415 61.9569 80.4415 62.1851C80.5556 62.6415 80.4416 63.0979 80.2134 63.6684ZM77.2467 48.0365C77.4749 48.1506 77.7031 48.1506 77.8172 48.2647C77.9313 48.3788 78.2736 48.4929 78.616 48.7211C78.8442 48.8352 79.0724 48.9493 79.1865 48.9493C79.3006 48.9493 79.4146 48.8352 79.5287 48.607L79.6429 48.2647C79.757 48.0365 79.8711 47.9224 79.9852 47.9224C80.0993 47.9224 80.2134 48.0365 80.3275 48.1506C80.4416 48.2647 80.4415 48.4929 80.4415 48.8352V54.4262C80.4415 54.7685 80.4416 54.9967 80.3275 55.2249C80.2134 55.339 80.0993 55.4531 79.9852 55.4531C79.8711 55.4531 79.757 55.339 79.6429 55.2249C79.5288 55.1108 79.5288 54.8826 79.4147 54.5403C79.3006 53.8557 79.1865 53.2852 79.0724 52.8288C78.8442 52.03 78.616 51.3455 78.2737 50.7749C78.0455 50.4326 77.9314 50.0903 77.7031 49.9762C77.4749 49.748 77.3608 49.6339 77.0185 49.6339V48.0365H77.2467ZM72.4545 53.9698C72.6827 52.8288 73.025 51.8018 73.3673 50.889C73.8237 49.9762 74.2801 49.2916 74.8506 48.8352C75.4211 48.2647 75.9916 48.0365 76.448 48.0365H76.6762V49.6339C76.3339 49.748 76.1057 49.9762 75.9916 50.3185C75.8775 50.6608 75.7634 51.2314 75.7634 51.916V63.5543C75.7634 63.7825 75.7634 64.0107 75.8775 64.2389C75.8775 64.4671 75.9916 64.6953 76.1057 64.8094C76.2198 65.0376 76.2198 65.1517 76.3339 65.1517C76.448 65.2658 76.5621 65.2658 76.6762 65.2658V66.8632C75.6493 66.8632 74.8506 66.4068 74.0519 65.494C73.3673 64.6953 72.9109 63.6684 72.5686 62.2992C72.2263 60.9299 72.1122 59.3325 72.1122 57.5069C72.1122 56.3659 72.2262 55.1108 72.4545 53.9698ZM69.7161 61.9569V66.635H66.5212V65.1517C66.8635 65.0376 67.0917 64.9235 67.3199 64.8094C67.5481 64.6953 67.7763 64.353 68.0045 64.1248C68.2327 63.7825 68.3468 63.4402 68.575 63.0979C68.6891 62.7556 68.8032 62.2992 68.9173 61.7286C68.9173 61.3863 69.0314 61.2722 69.1456 61.1581C69.2597 61.044 69.2597 61.0441 69.3738 61.0441C69.4879 61.0441 69.602 61.1581 69.7161 61.2722C69.7161 61.3863 69.7161 61.6146 69.7161 61.9569ZM66.5212 48.3788H69.6019V53.171C69.6019 53.3993 69.6019 53.6275 69.4878 53.7416C69.3737 53.8557 69.3738 53.9698 69.1456 53.9698C69.0314 53.9698 68.9173 53.9698 68.9173 53.8557C68.9173 53.7416 68.8033 53.6275 68.8033 53.3993C68.5751 52.3724 68.3468 51.5736 68.0045 51.0031C67.6622 50.4326 67.0917 50.0903 66.5212 49.9762V48.3788ZM66.5212 56.5941C66.8635 56.3659 67.0917 56.0236 67.2058 55.7954C67.3199 55.4531 67.434 55.1108 67.5481 54.6544C67.5481 54.3121 67.6622 54.0839 67.6622 53.9698C67.7764 53.8557 67.7763 53.7416 68.0045 53.7416C68.1186 53.7416 68.2327 53.8557 68.3468 54.0839C68.3468 54.198 68.3468 54.4262 68.3468 54.8826V60.0171C68.3468 60.4735 68.3469 60.7018 68.2328 60.93C68.2328 61.0441 68.1186 61.1581 67.8904 61.1581C67.7763 61.1581 67.6622 61.0441 67.6622 60.93C67.5481 60.8159 67.5481 60.5876 67.5481 60.2453C67.434 59.6748 67.3199 59.1043 67.2058 58.8761C67.0917 58.5338 66.8635 58.3056 66.6353 58.1915V56.5941H66.5212ZM62.4135 50.0903C62.4135 49.9762 62.2995 49.9762 62.2995 49.9762C62.2995 49.9762 62.1854 49.8621 61.9572 49.748C61.729 49.6339 61.6148 49.4057 61.6148 49.0634C61.6148 48.8352 61.6149 48.7211 61.729 48.4929C61.8431 48.3788 61.9571 48.2647 62.1853 48.2647H65.8366V66.635H62.1853C61.9571 66.635 61.8431 66.635 61.729 66.4068C61.6149 66.2927 61.6148 66.0645 61.6148 65.8363C61.6148 65.494 61.729 65.2658 61.9572 65.1517C62.0713 65.0376 62.1854 65.0376 62.2995 64.9235C62.2995 64.9235 62.2994 64.8094 62.4135 64.8094C62.5276 64.6953 62.5277 64.4671 62.5277 64.1248V50.6608C62.4136 50.5467 62.4135 50.3185 62.4135 50.0903ZM55.4534 48.0365C55.7957 48.0365 56.0239 48.1506 56.2521 48.2647C56.4803 48.3788 56.8226 48.607 57.1649 48.8352C57.279 48.9493 57.3931 48.9493 57.3931 48.9493C57.5072 48.9493 57.5072 48.8352 57.6213 48.7211L57.7354 48.3788C57.8495 48.1506 57.9636 48.0365 58.0777 48.0365C58.1918 48.0365 58.3059 48.1506 58.42 48.2647C58.5341 48.4929 58.5341 48.7211 58.5341 49.0634V53.5134C58.5341 53.7416 58.5341 53.9698 58.42 54.198C58.3059 54.3121 58.1918 54.4262 58.0777 54.4262C57.9636 54.4262 57.8495 54.3121 57.8495 54.198C57.8495 54.0839 57.7354 54.0839 57.7354 53.9698C57.7354 53.8557 57.7354 53.7416 57.6213 53.3993C57.5072 52.9429 57.5072 52.4864 57.279 52.03C57.1649 51.5736 56.9367 51.1173 56.8226 50.7749C56.4803 50.0903 56.0239 49.5198 55.4534 49.2916V48.0365ZM51.5739 51.3455C51.8021 50.4326 52.1445 49.748 52.6009 49.2916C53.1714 48.607 53.97 48.1506 54.7687 48.0365V49.6339C54.4264 49.748 54.1983 49.9762 54.0842 50.3185C53.9701 50.6608 53.8559 51.0031 53.8559 51.4595C53.8559 51.9159 53.9701 52.2582 54.0842 52.6005C54.1983 52.9428 54.4264 53.2852 54.7687 53.5134C54.9969 53.7416 55.4534 54.0839 56.2521 54.6544C56.7085 54.9967 57.0508 55.339 57.279 55.5672C57.5072 55.7954 57.7354 56.2518 57.9636 56.5941C58.5341 57.7351 58.8764 58.9902 58.8764 60.5876C58.8764 61.7286 58.7623 62.7556 58.42 63.7825C58.0777 64.6953 57.6213 65.494 57.0508 66.0645C56.7085 66.4068 56.3662 66.5209 56.0239 66.7491C55.6816 66.8632 55.3393 66.9773 54.997 66.9773V65.494C55.4534 65.2658 55.7957 65.0376 55.9098 64.6953C56.138 64.353 56.2521 63.8966 56.2521 63.3261C56.2521 62.7556 56.138 62.1851 55.7957 61.7286C55.5675 61.3863 55.2252 61.044 54.6547 60.5876C53.9701 60.1312 53.6278 59.7889 53.3996 59.5607C53.1714 59.3325 52.9431 59.1043 52.7149 58.8761C51.8021 57.621 51.2316 56.0236 51.2316 54.0839C51.2316 53.1711 51.3457 52.1442 51.5739 51.3455ZM51.2316 60.8159C51.2316 60.5877 51.2316 60.3594 51.3457 60.1312C51.4598 59.903 51.574 59.9031 51.6881 59.9031C51.8022 59.9031 51.9162 59.903 51.9162 60.0171C52.0303 60.1312 52.0304 60.3594 52.0304 60.7017C52.1445 61.5005 52.3726 62.1851 52.4867 62.8697C52.7149 63.5543 52.9431 64.1248 53.2854 64.5812C53.6277 65.0376 53.9701 65.3799 54.3124 65.494V66.9773C53.856 66.9773 53.3996 66.7491 52.9431 66.2927C52.7149 66.1786 52.6009 66.0645 52.6009 65.9504C52.4868 65.9504 52.4867 65.8363 52.3726 65.8363C52.2585 65.8363 52.1444 65.8363 52.1444 65.9504C52.1444 66.0645 52.0303 66.1786 51.9162 66.4068C51.8021 66.635 51.688 66.7491 51.5739 66.7491C51.2316 66.7491 51.1176 66.4068 51.1176 65.6081V60.8159H51.2316ZM39.1369 48.3788C40.1638 48.3788 40.9625 48.607 41.4189 48.9493C41.9894 49.4057 42.4458 49.9762 42.7881 50.7749C43.1304 51.5737 43.3586 52.7146 43.3586 53.8557C43.3586 55.2249 43.1304 56.3659 42.7881 57.2787C42.4458 58.1915 41.9894 58.762 41.3048 59.2184C40.7343 59.5607 40.0497 59.6748 39.0228 59.6748V58.1915C39.251 58.0774 39.3651 57.9633 39.4792 57.9633C39.5933 57.8492 39.5933 57.7351 39.7074 57.5069C39.8215 57.1646 39.8215 56.7082 39.8215 56.1377V51.8019C39.8215 51.3454 39.8215 51.1172 39.8215 50.889C39.8215 50.6608 39.7074 50.5467 39.5933 50.3185C39.4792 50.0903 39.251 49.8621 39.0228 49.8621V48.3788H39.1369ZM34.9152 50.0903C34.9152 49.9762 34.801 49.9762 34.801 49.9762C34.801 49.9762 34.6869 49.8621 34.4587 49.748C34.2305 49.6339 34.1164 49.4057 34.1164 49.0634C34.1164 48.8352 34.1164 48.7211 34.2305 48.4929C34.3446 48.3788 34.4587 48.2647 34.6869 48.2647H38.3382V64.0107C38.3382 64.353 38.3382 64.5812 38.4523 64.8094C38.4523 64.9235 38.5664 64.9235 38.5664 64.9235C38.5664 64.9235 38.6805 65.0376 38.9087 65.0376C39.1369 65.1517 39.251 65.3799 39.251 65.7222C39.251 65.9504 39.1369 66.1786 39.0228 66.2927C38.9087 66.4068 38.7946 66.4068 38.5664 66.4068H34.6869C34.4587 66.4068 34.3446 66.4068 34.2305 66.1786C34.1164 66.0645 34.1164 65.8363 34.1164 65.6081C34.1164 65.2658 34.2305 65.0376 34.4587 64.9235C34.5728 64.8094 34.6869 64.8094 34.801 64.6953C34.801 64.6953 34.8011 64.5812 34.9152 64.5812C35.0293 64.4671 35.0292 64.2389 35.0292 63.8966V50.4326C35.0292 50.5467 35.0293 50.3185 34.9152 50.0903ZM27.3844 65.6081C27.4985 65.6081 27.6127 65.494 27.7268 65.3799C27.8409 65.2658 27.8408 65.1517 27.9549 65.0376C28.069 64.6953 28.1831 64.1248 28.1831 63.3261V51.3455C28.1831 50.889 28.1832 50.5467 28.0691 50.2044C27.955 49.9762 27.955 49.8621 27.8409 49.748C27.7268 49.6339 27.6127 49.5198 27.4986 49.4057V47.9224C28.0691 47.9224 28.5255 48.1506 28.9819 48.4929C29.4383 48.8352 29.8947 49.4057 30.237 49.9762C31.2639 51.8018 31.8344 54.198 31.8344 57.3928C31.8344 60.4735 31.378 62.8697 30.3511 64.6953C29.5524 66.0645 28.6396 66.7491 27.4986 66.9773V65.6081H27.3844ZM22.8204 53.2852C23.0486 52.03 23.505 51.0031 23.9614 50.0903C24.3037 49.4057 24.7601 48.9493 25.2165 48.607C25.6729 48.2647 26.1293 48.0365 26.6998 48.0365V49.5198C26.4716 49.6339 26.2434 49.8621 26.1293 50.2044C26.0152 50.4326 26.0153 50.889 26.0153 51.4595V63.4402C26.0153 64.2389 26.1293 64.8094 26.2434 65.1517C26.3575 65.3799 26.4716 65.6081 26.8139 65.7222V67.2055C25.6729 67.0914 24.7601 66.2927 23.9614 64.9235C22.9345 63.212 22.4781 60.8159 22.4781 57.621C22.364 56.0236 22.5922 54.5403 22.8204 53.2852ZM18.1422 48.3788H20.1961V53.8557C20.1961 54.0839 20.1961 54.3121 20.082 54.5403C19.9679 54.6544 19.8538 54.7685 19.7397 54.7685C19.6256 54.7685 19.5114 54.6544 19.3973 54.5403C19.2832 54.4262 19.2833 54.198 19.2833 53.9698L19.1692 53.171C19.0551 52.3723 18.941 51.5736 18.7127 51.0031C18.5986 50.6608 18.3704 50.3185 18.1422 50.0903V48.3788ZM13.9205 65.0376L14.0346 64.9235C14.1487 64.8094 14.1487 64.4671 14.1487 64.1248V48.3788H17.5717V64.1248C17.5717 64.4671 17.5717 64.6953 17.6858 64.9235C17.6858 65.0376 17.8 65.0376 17.8 65.0376C17.8 65.0376 17.914 65.1517 18.1422 65.1517C18.3704 65.2658 18.4845 65.494 18.4845 65.8363C18.4845 66.0645 18.3704 66.2927 18.2563 66.4068C18.1422 66.5209 18.0282 66.5209 17.8 66.5209H13.9205C13.6923 66.5209 13.5782 66.5209 13.4641 66.2927C13.35 66.1786 13.2359 65.9504 13.2359 65.7222C13.2359 65.3799 13.35 65.0376 13.5782 65.0376C13.8064 65.1517 13.9205 65.0376 13.9205 65.0376ZM11.5244 48.3788H13.5782V49.9762C13.35 50.2044 13.1218 50.5467 13.0077 50.889C12.7795 51.4595 12.6654 52.2583 12.5513 53.057L12.4372 53.8557C12.4372 54.0839 12.3231 54.3121 12.3231 54.4262C12.209 54.5403 12.0948 54.6544 11.9807 54.6544C11.8666 54.6544 11.7526 54.5403 11.6385 54.4262C11.5244 54.3121 11.5244 54.0839 11.5244 53.7416V48.3788Z" fill="#555555" fill-opacity="0.5"/>
<path d="M62.8693 34.6869L64.2385 32.0625L67.2051 31.492L65.1513 29.3241L65.6077 26.3575L62.8693 27.7267L60.1308 26.3575L60.5873 29.3241L58.4193 31.492L61.386 32.0625L62.8693 34.6869Z" fill="#555555" fill-opacity="0.5"/>
<path d="M75.8759 36.3983L76.7888 34.8009L78.6143 34.4585L77.3593 33.0893L77.5874 31.2637L75.8759 32.1765L74.2785 31.2637L74.5067 33.0893L73.2516 34.4585L75.0772 34.8009L75.8759 36.3983Z" fill="#555555" fill-opacity="0.5"/>
<path d="M50.5465 36.3983L51.3452 34.8009L53.1708 34.4585L51.9157 33.0893L52.1439 31.2637L50.5465 32.1765L48.835 31.2637L49.1773 33.0893L47.8081 34.4585L49.6336 34.8009L50.5465 36.3983Z" fill="#555555" fill-opacity="0.5"/>
<path d="M62.8688 80.3275L64.2381 83.066L67.2047 83.5224L65.1509 85.6903L65.6072 88.771L62.8688 87.4018L60.1304 88.771L60.5868 85.6903L58.4189 83.5224L61.3855 83.066L62.8688 80.3275Z" fill="#555555" fill-opacity="0.5"/>
<path d="M75.8762 78.73L76.7891 80.3274L78.6147 80.6697L77.3596 81.9248L77.5877 83.7504L75.8762 82.9517L74.2788 83.7504L74.5071 81.9248L73.2519 80.6697L75.0776 80.3274L75.8762 78.73Z" fill="#555555" fill-opacity="0.5"/>
<path d="M50.547 78.73L51.3457 80.3274L53.1714 80.6697L51.9162 81.9248L52.1444 83.7505L50.547 82.9517L48.8355 83.7505L49.1778 81.9248L47.8086 80.6697L49.6342 80.3274L50.547 78.73Z" fill="#555555" fill-opacity="0.5"/>
</svg>
